<mxfile modified="2020-06-30T02:19:16.955Z" host="app.diagrams.net" agent="5.0 (Windows NT 10.0; Win64; x64) AppleWebKit/537.36 (KHTML, like Gecko) Chrome/83.0.4103.61 Safari/537.36" etag="3hkr__sRvGZt8GDC8Wtq" version="13.3.5" type="github">
  <diagram id="Szxc0sAU8Ip1z_RgcFrF" name="Page-1">
    <mxGraphModel dx="1422" dy="1941" grid="1" gridSize="10" guides="1" tooltips="1" connect="1" arrows="1" fold="1" page="1" pageScale="1" pageWidth="827" pageHeight="1169" math="0" shadow="0">
      <root>
        <mxCell id="0" />
        <mxCell id="1" parent="0" />
        <mxCell id="R5I_NKbSgLiRdK40znAQ-33" value="" style="group" parent="1" vertex="1" connectable="0">
          <mxGeometry x="460" y="-908" width="200" height="120" as="geometry" />
        </mxCell>
        <mxCell id="R5I_NKbSgLiRdK40znAQ-29" value="" style="rounded=1;whiteSpace=wrap;html=1;fillColor=#006600;" parent="R5I_NKbSgLiRdK40znAQ-33" vertex="1">
          <mxGeometry width="200" height="120" as="geometry" />
        </mxCell>
        <mxCell id="R5I_NKbSgLiRdK40znAQ-30" value="小程序商店" style="rounded=1;whiteSpace=wrap;html=1;fillColor=#FFFF66;" parent="R5I_NKbSgLiRdK40znAQ-33" vertex="1">
          <mxGeometry x="100" y="6" width="91" height="27" as="geometry" />
        </mxCell>
        <mxCell id="R5I_NKbSgLiRdK40znAQ-31" value="物业论坛" style="rounded=1;whiteSpace=wrap;html=1;fillColor=#FFFF66;" parent="R5I_NKbSgLiRdK40znAQ-33" vertex="1">
          <mxGeometry x="100" y="33" width="91" height="27" as="geometry" />
        </mxCell>
        <mxCell id="R5I_NKbSgLiRdK40znAQ-32" value="教育智慧平台" style="rounded=1;whiteSpace=wrap;html=1;fillColor=#FFFF66;" parent="R5I_NKbSgLiRdK40znAQ-33" vertex="1">
          <mxGeometry x="100" y="60" width="91" height="27" as="geometry" />
        </mxCell>
        <mxCell id="R5I_NKbSgLiRdK40znAQ-21" value="嵌入式研发" style="rounded=1;whiteSpace=wrap;html=1;fillColor=#FFFF66;" parent="R5I_NKbSgLiRdK40znAQ-33" vertex="1">
          <mxGeometry x="100" y="87" width="91" height="25" as="geometry" />
        </mxCell>
        <mxCell id="R5I_NKbSgLiRdK40znAQ-43" value="&lt;b&gt;&lt;font color=&quot;#ffffff&quot;&gt;智&lt;br&gt;慧&lt;br&gt;平&lt;br&gt;台&lt;/font&gt;&lt;/b&gt;" style="text;html=1;resizable=0;points=[];autosize=1;align=left;verticalAlign=top;spacingTop=-4;" parent="R5I_NKbSgLiRdK40znAQ-33" vertex="1">
          <mxGeometry x="15" y="6" width="30" height="60" as="geometry" />
        </mxCell>
        <mxCell id="R5I_NKbSgLiRdK40znAQ-44" value="&lt;font color=&quot;#ffffff&quot;&gt;中后期造血系统&lt;/font&gt;" style="text;html=1;resizable=0;points=[];autosize=1;align=left;verticalAlign=top;spacingTop=-4;fontStyle=1" parent="R5I_NKbSgLiRdK40znAQ-33" vertex="1">
          <mxGeometry x="10" y="87" width="100" height="20" as="geometry" />
        </mxCell>
        <mxCell id="R5I_NKbSgLiRdK40znAQ-35" value="" style="group" parent="1" vertex="1" connectable="0">
          <mxGeometry x="460" y="-1030" width="260" height="122" as="geometry" />
        </mxCell>
        <mxCell id="R5I_NKbSgLiRdK40znAQ-17" value="" style="rounded=1;whiteSpace=wrap;html=1;fillColor=#006600;" parent="R5I_NKbSgLiRdK40znAQ-35" vertex="1">
          <mxGeometry width="200" height="122" as="geometry" />
        </mxCell>
        <mxCell id="R5I_NKbSgLiRdK40znAQ-27" value="&lt;span style=&quot;text-align: center ; white-space: normal&quot;&gt;&lt;b&gt;&lt;font color=&quot;#ffffff&quot;&gt;数&lt;br&gt;码&lt;br&gt;产&lt;br&gt;品&lt;/font&gt;&lt;/b&gt;&lt;/span&gt;" style="text;html=1;resizable=0;points=[];autosize=1;align=left;verticalAlign=top;spacingTop=-4;" parent="R5I_NKbSgLiRdK40znAQ-35" vertex="1">
          <mxGeometry x="10" y="17" width="30" height="60" as="geometry" />
        </mxCell>
        <mxCell id="R5I_NKbSgLiRdK40znAQ-15" value="&lt;b&gt;&lt;font color=&quot;#ffffff&quot;&gt;最初期造血系统&lt;/font&gt;&lt;/b&gt;" style="text;html=1;resizable=0;points=[];autosize=1;align=left;verticalAlign=top;spacingTop=-4;" parent="R5I_NKbSgLiRdK40znAQ-35" vertex="1">
          <mxGeometry x="10" y="92" width="100" height="20" as="geometry" />
        </mxCell>
        <mxCell id="R5I_NKbSgLiRdK40znAQ-34" value="" style="group" parent="R5I_NKbSgLiRdK40znAQ-35" vertex="1" connectable="0">
          <mxGeometry x="50" y="7" width="210" height="80" as="geometry" />
        </mxCell>
        <mxCell id="R5I_NKbSgLiRdK40znAQ-22" value="智能终端设备" style="rounded=1;whiteSpace=wrap;html=1;fillColor=#FFEB36;" parent="R5I_NKbSgLiRdK40znAQ-34" vertex="1">
          <mxGeometry width="90" height="20" as="geometry" />
        </mxCell>
        <mxCell id="R5I_NKbSgLiRdK40znAQ-23" value="手机、平板" style="rounded=1;whiteSpace=wrap;html=1;fillColor=#FFEB36;" parent="R5I_NKbSgLiRdK40znAQ-34" vertex="1">
          <mxGeometry y="20" width="90" height="20" as="geometry" />
        </mxCell>
        <mxCell id="R5I_NKbSgLiRdK40znAQ-24" value="电脑" style="rounded=1;whiteSpace=wrap;html=1;fillColor=#FFEB36;" parent="R5I_NKbSgLiRdK40znAQ-34" vertex="1">
          <mxGeometry y="40" width="90" height="20" as="geometry" />
        </mxCell>
        <mxCell id="R5I_NKbSgLiRdK40znAQ-25" value="安防及智能家居" style="rounded=1;whiteSpace=wrap;html=1;fillColor=#FFEB36;" parent="R5I_NKbSgLiRdK40znAQ-34" vertex="1">
          <mxGeometry y="60" width="90" height="20" as="geometry" />
        </mxCell>
        <mxCell id="R5I_NKbSgLiRdK40znAQ-28" value="" style="group" parent="R5I_NKbSgLiRdK40znAQ-34" vertex="1" connectable="0">
          <mxGeometry x="90" y="10" width="120" height="60" as="geometry" />
        </mxCell>
        <mxCell id="R5I_NKbSgLiRdK40znAQ-18" value="销售" style="rounded=1;whiteSpace=wrap;html=1;fillColor=#97D077;" parent="R5I_NKbSgLiRdK40znAQ-28" vertex="1">
          <mxGeometry width="53" height="30" as="geometry" />
        </mxCell>
        <mxCell id="R5I_NKbSgLiRdK40znAQ-19" value="维修&lt;span style=&quot;font-family: &amp;#34;helvetica&amp;#34; , &amp;#34;arial&amp;#34; , sans-serif ; font-size: 0px ; white-space: nowrap&quot;&gt;%3CmxGraphModel%3E%3Croot%3E%3CmxCell%20id%3D%220%22%2F%3E%3CmxCell%20id%3D%221%22%20parent%3D%220%22%2F%3E%3CmxCell%20id%3D%222%22%20value%3D%22%E9%94%80%E5%94%AE%22%20style%3D%22rounded%3D1%3BwhiteSpace%3Dwrap%3Bhtml%3D1%3B%22%20vertex%3D%221%22%20parent%3D%221%22%3E%3CmxGeometry%20x%3D%22600%22%20y%3D%2270%22%20width%3D%22100%22%20height%3D%2230%22%20as%3D%22geometry%22%2F%3E%3C%2FmxCell%3E%3C%2Froot%3E%3C%2FmxGraphModel%3E&lt;/span&gt;" style="rounded=1;whiteSpace=wrap;html=1;fillColor=#97D077;" parent="R5I_NKbSgLiRdK40znAQ-28" vertex="1">
          <mxGeometry y="30" width="53" height="30" as="geometry" />
        </mxCell>
        <mxCell id="R5I_NKbSgLiRdK40znAQ-36" value="面向孩子数码" style="rounded=1;whiteSpace=wrap;html=1;fillColor=#fff2cc;strokeColor=#d6b656;" parent="1" vertex="1">
          <mxGeometry x="685" y="-1030" width="91" height="27" as="geometry" />
        </mxCell>
        <mxCell id="R5I_NKbSgLiRdK40znAQ-37" value="面向上班族" style="rounded=1;whiteSpace=wrap;html=1;fillColor=#ffe6cc;strokeColor=#d79b00;" parent="1" vertex="1">
          <mxGeometry x="685" y="-1003" width="91" height="27" as="geometry" />
        </mxCell>
        <mxCell id="R5I_NKbSgLiRdK40znAQ-39" value="面向家居" style="rounded=1;whiteSpace=wrap;html=1;fillColor=#d5e8d4;strokeColor=#82b366;" parent="1" vertex="1">
          <mxGeometry x="686" y="-976" width="91" height="27" as="geometry" />
        </mxCell>
        <mxCell id="R5I_NKbSgLiRdK40znAQ-40" value="" style="edgeStyle=elbowEdgeStyle;elbow=horizontal;endArrow=classic;html=1;entryX=0;entryY=0.5;entryDx=0;entryDy=0;" parent="1" target="R5I_NKbSgLiRdK40znAQ-36" edge="1">
          <mxGeometry width="50" height="50" relative="1" as="geometry">
            <mxPoint x="653" y="-983" as="sourcePoint" />
            <mxPoint x="195" y="-993" as="targetPoint" />
          </mxGeometry>
        </mxCell>
        <mxCell id="R5I_NKbSgLiRdK40znAQ-41" value="" style="edgeStyle=elbowEdgeStyle;elbow=horizontal;endArrow=classic;html=1;exitX=1.057;exitY=0;exitDx=0;exitDy=0;entryX=0;entryY=0.5;entryDx=0;entryDy=0;exitPerimeter=0;" parent="1" source="R5I_NKbSgLiRdK40znAQ-19" target="R5I_NKbSgLiRdK40znAQ-39" edge="1">
          <mxGeometry width="50" height="50" relative="1" as="geometry">
            <mxPoint x="265" y="-943" as="sourcePoint" />
            <mxPoint x="205" y="-983" as="targetPoint" />
          </mxGeometry>
        </mxCell>
        <mxCell id="R5I_NKbSgLiRdK40znAQ-46" value="" style="group" parent="1" vertex="1" connectable="0">
          <mxGeometry x="100" y="-1030" width="290" height="240" as="geometry" />
        </mxCell>
        <mxCell id="R5I_NKbSgLiRdK40znAQ-11" value="" style="rounded=0;whiteSpace=wrap;html=1;" parent="R5I_NKbSgLiRdK40znAQ-46" vertex="1">
          <mxGeometry width="290" height="240" as="geometry" />
        </mxCell>
        <mxCell id="R5I_NKbSgLiRdK40znAQ-1" value="夏天" style="rounded=1;whiteSpace=wrap;html=1;" parent="R5I_NKbSgLiRdK40znAQ-46" vertex="1">
          <mxGeometry x="20" y="10" width="100" height="40" as="geometry" />
        </mxCell>
        <mxCell id="R5I_NKbSgLiRdK40znAQ-3" value="夏天" style="rounded=1;whiteSpace=wrap;html=1;" parent="R5I_NKbSgLiRdK40znAQ-46" vertex="1">
          <mxGeometry x="20" y="160" width="100" height="40" as="geometry" />
        </mxCell>
        <mxCell id="R5I_NKbSgLiRdK40znAQ-4" value="冬天" style="rounded=1;whiteSpace=wrap;html=1;" parent="R5I_NKbSgLiRdK40znAQ-46" vertex="1">
          <mxGeometry x="20" y="90" width="100" height="40" as="geometry" />
        </mxCell>
        <mxCell id="R5I_NKbSgLiRdK40znAQ-5" value="上学期" style="rounded=1;whiteSpace=wrap;html=1;" parent="R5I_NKbSgLiRdK40znAQ-46" vertex="1">
          <mxGeometry x="180" y="50" width="100" height="40" as="geometry" />
        </mxCell>
        <mxCell id="R5I_NKbSgLiRdK40znAQ-6" value="下学期" style="rounded=1;whiteSpace=wrap;html=1;" parent="R5I_NKbSgLiRdK40znAQ-46" vertex="1">
          <mxGeometry x="180" y="130" width="100" height="40" as="geometry" />
        </mxCell>
        <mxCell id="R5I_NKbSgLiRdK40znAQ-7" value="" style="edgeStyle=elbowEdgeStyle;elbow=horizontal;endArrow=classic;html=1;exitX=0;exitY=0.5;exitDx=0;exitDy=0;" parent="R5I_NKbSgLiRdK40znAQ-46" source="R5I_NKbSgLiRdK40znAQ-5" target="R5I_NKbSgLiRdK40znAQ-1" edge="1">
          <mxGeometry width="50" height="50" relative="1" as="geometry">
            <mxPoint x="150" y="270" as="sourcePoint" />
            <mxPoint x="200" y="220" as="targetPoint" />
          </mxGeometry>
        </mxCell>
        <mxCell id="R5I_NKbSgLiRdK40znAQ-8" value="" style="edgeStyle=elbowEdgeStyle;elbow=horizontal;endArrow=classic;html=1;exitX=0;exitY=0.5;exitDx=0;exitDy=0;entryX=1;entryY=0.5;entryDx=0;entryDy=0;" parent="R5I_NKbSgLiRdK40znAQ-46" source="R5I_NKbSgLiRdK40znAQ-5" target="R5I_NKbSgLiRdK40znAQ-4" edge="1">
          <mxGeometry width="50" height="50" relative="1" as="geometry">
            <mxPoint x="200" y="50" as="sourcePoint" />
            <mxPoint x="130" y="40" as="targetPoint" />
          </mxGeometry>
        </mxCell>
        <mxCell id="R5I_NKbSgLiRdK40znAQ-9" value="" style="edgeStyle=elbowEdgeStyle;elbow=horizontal;endArrow=classic;html=1;exitX=0;exitY=0.5;exitDx=0;exitDy=0;entryX=1;entryY=0.5;entryDx=0;entryDy=0;" parent="R5I_NKbSgLiRdK40znAQ-46" source="R5I_NKbSgLiRdK40znAQ-6" target="R5I_NKbSgLiRdK40znAQ-4" edge="1">
          <mxGeometry width="50" height="50" relative="1" as="geometry">
            <mxPoint x="210" y="60" as="sourcePoint" />
            <mxPoint x="140" y="50" as="targetPoint" />
          </mxGeometry>
        </mxCell>
        <mxCell id="R5I_NKbSgLiRdK40znAQ-10" value="" style="edgeStyle=elbowEdgeStyle;elbow=horizontal;endArrow=classic;html=1;exitX=0;exitY=0.5;exitDx=0;exitDy=0;entryX=1;entryY=0.5;entryDx=0;entryDy=0;" parent="R5I_NKbSgLiRdK40znAQ-46" source="R5I_NKbSgLiRdK40znAQ-6" target="R5I_NKbSgLiRdK40znAQ-3" edge="1">
          <mxGeometry width="50" height="50" relative="1" as="geometry">
            <mxPoint x="220" y="70" as="sourcePoint" />
            <mxPoint x="150" y="60" as="targetPoint" />
          </mxGeometry>
        </mxCell>
        <mxCell id="R5I_NKbSgLiRdK40znAQ-12" value="&lt;b&gt;辅助教育系统&lt;/b&gt;" style="text;html=1;resizable=0;points=[];autosize=1;align=left;verticalAlign=top;spacingTop=-4;" parent="R5I_NKbSgLiRdK40znAQ-46" vertex="1">
          <mxGeometry x="100" y="212" width="90" height="20" as="geometry" />
        </mxCell>
        <mxCell id="R5I_NKbSgLiRdK40znAQ-47" value="&lt;b&gt;教育系统初步阶段面向的人群是小学生、中后期将面向社会群体&lt;br&gt;授课主要内容为：&lt;br&gt;英语、以计算机单词为主要对象，集合生活场景引入生活日常单词量&lt;br&gt;数学、数的概念、数的内容、数的结构、运算法则、算法&lt;br&gt;编程、应用数学中的运算法则解决生活问题（也就是算法基础的学习）&lt;/b&gt;" style="text;html=1;resizable=0;points=[];autosize=1;align=left;verticalAlign=top;spacingTop=-4;" parent="1" vertex="1">
          <mxGeometry x="100" y="-771" width="390" height="70" as="geometry" />
        </mxCell>
        <mxCell id="R5I_NKbSgLiRdK40znAQ-52" value="" style="edgeStyle=orthogonalEdgeStyle;rounded=0;orthogonalLoop=1;jettySize=auto;html=1;" parent="1" source="R5I_NKbSgLiRdK40znAQ-49" target="R5I_NKbSgLiRdK40znAQ-50" edge="1">
          <mxGeometry relative="1" as="geometry" />
        </mxCell>
        <mxCell id="R5I_NKbSgLiRdK40znAQ-49" value="&lt;font color=&quot;#ffffff&quot;&gt;&lt;b&gt;英语&lt;/b&gt;&lt;/font&gt;" style="rounded=1;whiteSpace=wrap;html=1;fillColor=#990000;" parent="1" vertex="1">
          <mxGeometry x="90" y="-650" width="120" height="40" as="geometry" />
        </mxCell>
        <mxCell id="R5I_NKbSgLiRdK40znAQ-53" value="" style="edgeStyle=orthogonalEdgeStyle;rounded=0;orthogonalLoop=1;jettySize=auto;html=1;" parent="1" source="R5I_NKbSgLiRdK40znAQ-50" target="R5I_NKbSgLiRdK40znAQ-51" edge="1">
          <mxGeometry relative="1" as="geometry" />
        </mxCell>
        <mxCell id="R5I_NKbSgLiRdK40znAQ-50" value="&lt;font color=&quot;#ffffff&quot;&gt;&lt;b&gt;计算机英语及&lt;br&gt;电子专业英语&lt;/b&gt;&lt;/font&gt;" style="rounded=1;whiteSpace=wrap;html=1;fillColor=#990000;" parent="1" vertex="1">
          <mxGeometry x="239" y="-650" width="120" height="40" as="geometry" />
        </mxCell>
        <mxCell id="R5I_NKbSgLiRdK40znAQ-51" value="&lt;font color=&quot;#ffffff&quot;&gt;&lt;span style=&quot;font-weight: normal&quot;&gt;随电子设备在生活中的使用衍生生活单词&lt;/span&gt;&lt;/font&gt;" style="rounded=1;whiteSpace=wrap;html=1;fillColor=#990000;fontStyle=1" parent="1" vertex="1">
          <mxGeometry x="420" y="-650" width="120" height="40" as="geometry" />
        </mxCell>
        <mxCell id="R5I_NKbSgLiRdK40znAQ-56" value="" style="edgeStyle=orthogonalEdgeStyle;rounded=0;orthogonalLoop=1;jettySize=auto;html=1;" parent="1" source="R5I_NKbSgLiRdK40znAQ-54" target="R5I_NKbSgLiRdK40znAQ-49" edge="1">
          <mxGeometry relative="1" as="geometry" />
        </mxCell>
        <mxCell id="R5I_NKbSgLiRdK40znAQ-54" value="&lt;font color=&quot;#ffffff&quot;&gt;&lt;b&gt;数学&lt;/b&gt;&lt;/font&gt;" style="rounded=1;whiteSpace=wrap;html=1;fillColor=#990000;" parent="1" vertex="1">
          <mxGeometry x="90" y="-486" width="120" height="40" as="geometry" />
        </mxCell>
        <mxCell id="R5I_NKbSgLiRdK40znAQ-58" value="&lt;font color=&quot;#ffffff&quot;&gt;&lt;b&gt;数的概念&lt;/b&gt;&lt;/font&gt;" style="rounded=1;whiteSpace=wrap;html=1;fillColor=#990000;" parent="1" vertex="1">
          <mxGeometry x="240" y="-557" width="120" height="40" as="geometry" />
        </mxCell>
        <mxCell id="R5I_NKbSgLiRdK40znAQ-57" value="以&lt;br&gt;单&lt;br&gt;词&lt;br&gt;为&lt;br&gt;主" style="text;html=1;resizable=0;points=[];autosize=1;align=left;verticalAlign=top;spacingTop=-4;" parent="1" vertex="1">
          <mxGeometry x="134" y="-601" width="30" height="70" as="geometry" />
        </mxCell>
        <mxCell id="R5I_NKbSgLiRdK40znAQ-64" value="" style="edgeStyle=elbowEdgeStyle;elbow=horizontal;endArrow=classic;html=1;entryX=0;entryY=0.5;entryDx=0;entryDy=0;exitX=1;exitY=0.5;exitDx=0;exitDy=0;" parent="1" source="R5I_NKbSgLiRdK40znAQ-58" target="R5I_NKbSgLiRdK40znAQ-60" edge="1">
          <mxGeometry width="50" height="50" relative="1" as="geometry">
            <mxPoint x="360" y="-500" as="sourcePoint" />
            <mxPoint x="410" y="-550" as="targetPoint" />
          </mxGeometry>
        </mxCell>
        <mxCell id="R5I_NKbSgLiRdK40znAQ-65" value="" style="edgeStyle=elbowEdgeStyle;elbow=horizontal;endArrow=classic;html=1;entryX=0;entryY=0.5;entryDx=0;entryDy=0;exitX=1;exitY=0.5;exitDx=0;exitDy=0;" parent="1" source="R5I_NKbSgLiRdK40znAQ-58" target="R5I_NKbSgLiRdK40znAQ-63" edge="1">
          <mxGeometry width="50" height="50" relative="1" as="geometry">
            <mxPoint x="370" y="-496" as="sourcePoint" />
            <mxPoint x="405" y="-536" as="targetPoint" />
          </mxGeometry>
        </mxCell>
        <mxCell id="R5I_NKbSgLiRdK40znAQ-66" value="&lt;font color=&quot;#ffffff&quot;&gt;&lt;b&gt;函数&lt;/b&gt;&lt;/font&gt;" style="rounded=1;whiteSpace=wrap;html=1;fillColor=#990000;" parent="1" vertex="1">
          <mxGeometry x="240" y="-466" width="120" height="40" as="geometry" />
        </mxCell>
        <mxCell id="R5I_NKbSgLiRdK40znAQ-67" value="&lt;font color=&quot;#ffffff&quot;&gt;&lt;b&gt;算法&lt;/b&gt;&lt;/font&gt;" style="rounded=1;whiteSpace=wrap;html=1;fillColor=#990000;" parent="1" vertex="1">
          <mxGeometry x="240" y="-404" width="120" height="40" as="geometry" />
        </mxCell>
        <mxCell id="R5I_NKbSgLiRdK40znAQ-68" value="" style="edgeStyle=elbowEdgeStyle;elbow=horizontal;endArrow=classic;html=1;exitX=1;exitY=0.5;exitDx=0;exitDy=0;entryX=0;entryY=0.5;entryDx=0;entryDy=0;" parent="1" source="R5I_NKbSgLiRdK40znAQ-60" target="R5I_NKbSgLiRdK40znAQ-69" edge="1">
          <mxGeometry width="50" height="50" relative="1" as="geometry">
            <mxPoint x="520" y="-540" as="sourcePoint" />
            <mxPoint x="570" y="-580" as="targetPoint" />
          </mxGeometry>
        </mxCell>
        <mxCell id="R5I_NKbSgLiRdK40znAQ-69" value="&lt;font color=&quot;#ffffff&quot;&gt;&lt;span style=&quot;font-weight: normal&quot;&gt;实数&lt;/span&gt;&lt;/font&gt;" style="rounded=1;whiteSpace=wrap;html=1;fillColor=#999900;fontStyle=1" parent="1" vertex="1">
          <mxGeometry x="571" y="-610" width="79" height="20" as="geometry" />
        </mxCell>
        <mxCell id="R5I_NKbSgLiRdK40znAQ-75" value="" style="group" parent="1" vertex="1" connectable="0">
          <mxGeometry x="680" y="-649" width="79.5" height="80" as="geometry" />
        </mxCell>
        <mxCell id="R5I_NKbSgLiRdK40znAQ-70" value="&lt;font color=&quot;#ffffff&quot;&gt;正数&lt;/font&gt;" style="rounded=1;whiteSpace=wrap;html=1;fillColor=#999900;" parent="R5I_NKbSgLiRdK40znAQ-75" vertex="1">
          <mxGeometry width="79" height="20" as="geometry" />
        </mxCell>
        <mxCell id="R5I_NKbSgLiRdK40znAQ-72" value="&lt;font color=&quot;#ffffff&quot;&gt;负数&lt;/font&gt;" style="rounded=1;whiteSpace=wrap;html=1;fillColor=#999900;" parent="R5I_NKbSgLiRdK40znAQ-75" vertex="1">
          <mxGeometry y="20" width="79" height="20" as="geometry" />
        </mxCell>
        <mxCell id="R5I_NKbSgLiRdK40znAQ-73" value="&lt;font color=&quot;#ffffff&quot;&gt;数轴&lt;/font&gt;" style="rounded=1;whiteSpace=wrap;html=1;fillColor=#999900;" parent="R5I_NKbSgLiRdK40znAQ-75" vertex="1">
          <mxGeometry y="40" width="79" height="20" as="geometry" />
        </mxCell>
        <mxCell id="R5I_NKbSgLiRdK40znAQ-74" value="&lt;font color=&quot;#ffffff&quot;&gt;向限图&lt;/font&gt;" style="rounded=1;whiteSpace=wrap;html=1;fillColor=#999900;" parent="R5I_NKbSgLiRdK40znAQ-75" vertex="1">
          <mxGeometry x="0.5" y="60" width="79" height="20" as="geometry" />
        </mxCell>
        <mxCell id="R5I_NKbSgLiRdK40znAQ-76" value="" style="edgeStyle=elbowEdgeStyle;elbow=horizontal;endArrow=classic;html=1;exitX=1;exitY=0.5;exitDx=0;exitDy=0;entryX=0;entryY=0.5;entryDx=0;entryDy=0;" parent="1" source="R5I_NKbSgLiRdK40znAQ-69" target="R5I_NKbSgLiRdK40znAQ-70" edge="1">
          <mxGeometry width="50" height="50" relative="1" as="geometry">
            <mxPoint x="525" y="-536" as="sourcePoint" />
            <mxPoint x="581" y="-590" as="targetPoint" />
          </mxGeometry>
        </mxCell>
        <mxCell id="R5I_NKbSgLiRdK40znAQ-77" value="" style="edgeStyle=elbowEdgeStyle;elbow=horizontal;endArrow=classic;html=1;exitX=1;exitY=0.5;exitDx=0;exitDy=0;entryX=0;entryY=0.5;entryDx=0;entryDy=0;" parent="1" source="R5I_NKbSgLiRdK40znAQ-69" target="R5I_NKbSgLiRdK40znAQ-74" edge="1">
          <mxGeometry width="50" height="50" relative="1" as="geometry">
            <mxPoint x="535" y="-526" as="sourcePoint" />
            <mxPoint x="591" y="-580" as="targetPoint" />
          </mxGeometry>
        </mxCell>
        <mxCell id="R5I_NKbSgLiRdK40znAQ-78" value="&lt;font color=&quot;#ffffff&quot;&gt;&lt;span style=&quot;font-weight: normal&quot;&gt;计算&lt;/span&gt;&lt;/font&gt;" style="rounded=1;whiteSpace=wrap;html=1;fillColor=#999900;fontStyle=1" parent="1" vertex="1">
          <mxGeometry x="561" y="-552" width="99" height="20" as="geometry" />
        </mxCell>
        <mxCell id="R5I_NKbSgLiRdK40znAQ-79" value="&lt;font color=&quot;#ffffff&quot;&gt;&lt;span style=&quot;font-weight: normal&quot;&gt;随处可见的数&lt;/span&gt;&lt;/font&gt;" style="rounded=1;whiteSpace=wrap;html=1;fillColor=#999900;fontStyle=1" parent="1" vertex="1">
          <mxGeometry x="561" y="-532" width="99" height="20" as="geometry" />
        </mxCell>
        <mxCell id="R5I_NKbSgLiRdK40znAQ-80" value="&lt;font color=&quot;#ffffff&quot;&gt;&lt;span style=&quot;font-weight: normal&quot;&gt;数的进制&lt;/span&gt;&lt;/font&gt;" style="rounded=1;whiteSpace=wrap;html=1;fillColor=#999900;fontStyle=1" parent="1" vertex="1">
          <mxGeometry x="571" y="-576" width="79" height="20" as="geometry" />
        </mxCell>
        <mxCell id="R5I_NKbSgLiRdK40znAQ-81" value="" style="edgeStyle=elbowEdgeStyle;elbow=horizontal;endArrow=classic;html=1;exitX=1;exitY=0.5;exitDx=0;exitDy=0;entryX=0;entryY=0.5;entryDx=0;entryDy=0;" parent="1" source="R5I_NKbSgLiRdK40znAQ-60" target="R5I_NKbSgLiRdK40znAQ-80" edge="1">
          <mxGeometry width="50" height="50" relative="1" as="geometry">
            <mxPoint x="525" y="-536" as="sourcePoint" />
            <mxPoint x="581" y="-590" as="targetPoint" />
          </mxGeometry>
        </mxCell>
        <mxCell id="R5I_NKbSgLiRdK40znAQ-82" value="" style="edgeStyle=elbowEdgeStyle;elbow=horizontal;endArrow=classic;html=1;exitX=1;exitY=0.5;exitDx=0;exitDy=0;entryX=0;entryY=0.5;entryDx=0;entryDy=0;" parent="1" source="R5I_NKbSgLiRdK40znAQ-54" target="R5I_NKbSgLiRdK40znAQ-58" edge="1">
          <mxGeometry width="50" height="50" relative="1" as="geometry">
            <mxPoint x="535" y="-526" as="sourcePoint" />
            <mxPoint x="591" y="-580" as="targetPoint" />
          </mxGeometry>
        </mxCell>
        <mxCell id="R5I_NKbSgLiRdK40znAQ-83" value="" style="edgeStyle=elbowEdgeStyle;elbow=horizontal;endArrow=classic;html=1;exitX=1;exitY=0.5;exitDx=0;exitDy=0;entryX=0;entryY=0.5;entryDx=0;entryDy=0;" parent="1" source="R5I_NKbSgLiRdK40znAQ-54" target="R5I_NKbSgLiRdK40znAQ-67" edge="1">
          <mxGeometry width="50" height="50" relative="1" as="geometry">
            <mxPoint x="545" y="-516" as="sourcePoint" />
            <mxPoint x="601" y="-570" as="targetPoint" />
          </mxGeometry>
        </mxCell>
        <mxCell id="R5I_NKbSgLiRdK40znAQ-84" value="" style="group" parent="1" vertex="1" connectable="0">
          <mxGeometry x="394" y="-597" width="121" height="120" as="geometry" />
        </mxCell>
        <mxCell id="R5I_NKbSgLiRdK40znAQ-60" value="&lt;font color=&quot;#ffffff&quot;&gt;&lt;b&gt;数的内容&lt;/b&gt;&lt;/font&gt;" style="rounded=1;whiteSpace=wrap;html=1;fillColor=#999900;" parent="R5I_NKbSgLiRdK40znAQ-84" vertex="1">
          <mxGeometry width="120" height="40" as="geometry" />
        </mxCell>
        <mxCell id="R5I_NKbSgLiRdK40znAQ-62" value="&lt;font color=&quot;#ffffff&quot;&gt;&lt;b&gt;数的应用&lt;/b&gt;&lt;/font&gt;" style="rounded=1;whiteSpace=wrap;html=1;fillColor=#999900;" parent="R5I_NKbSgLiRdK40znAQ-84" vertex="1">
          <mxGeometry x="1" y="40" width="120" height="40" as="geometry" />
        </mxCell>
        <mxCell id="R5I_NKbSgLiRdK40znAQ-63" value="&lt;font color=&quot;#ffffff&quot;&gt;&lt;b&gt;数的结构&lt;/b&gt;&lt;/font&gt;" style="rounded=1;whiteSpace=wrap;html=1;fillColor=#999900;" parent="R5I_NKbSgLiRdK40znAQ-84" vertex="1">
          <mxGeometry x="1" y="80" width="120" height="40" as="geometry" />
        </mxCell>
        <mxCell id="R5I_NKbSgLiRdK40znAQ-85" value="" style="group" parent="1" vertex="1" connectable="0">
          <mxGeometry x="681.5" y="-566" width="79.5" height="80" as="geometry" />
        </mxCell>
        <mxCell id="R5I_NKbSgLiRdK40znAQ-86" value="&lt;font color=&quot;#ffffff&quot;&gt;十六进制&lt;/font&gt;" style="rounded=1;whiteSpace=wrap;html=1;fillColor=#999900;" parent="R5I_NKbSgLiRdK40znAQ-85" vertex="1">
          <mxGeometry width="79" height="20" as="geometry" />
        </mxCell>
        <mxCell id="R5I_NKbSgLiRdK40znAQ-87" value="&lt;font color=&quot;#ffffff&quot;&gt;十进制&lt;/font&gt;" style="rounded=1;whiteSpace=wrap;html=1;fillColor=#999900;" parent="R5I_NKbSgLiRdK40znAQ-85" vertex="1">
          <mxGeometry y="20" width="79" height="20" as="geometry" />
        </mxCell>
        <mxCell id="R5I_NKbSgLiRdK40znAQ-88" value="&lt;font color=&quot;#ffffff&quot;&gt;八进制&lt;/font&gt;" style="rounded=1;whiteSpace=wrap;html=1;fillColor=#999900;" parent="R5I_NKbSgLiRdK40znAQ-85" vertex="1">
          <mxGeometry y="40" width="79" height="20" as="geometry" />
        </mxCell>
        <mxCell id="R5I_NKbSgLiRdK40znAQ-89" value="&lt;font color=&quot;#ffffff&quot;&gt;二进制&lt;/font&gt;" style="rounded=1;whiteSpace=wrap;html=1;fillColor=#999900;" parent="R5I_NKbSgLiRdK40znAQ-85" vertex="1">
          <mxGeometry x="0.5" y="60" width="79" height="20" as="geometry" />
        </mxCell>
        <mxCell id="R5I_NKbSgLiRdK40znAQ-91" value="" style="edgeStyle=elbowEdgeStyle;elbow=horizontal;endArrow=classic;html=1;exitX=1;exitY=0.5;exitDx=0;exitDy=0;entryX=0;entryY=0.5;entryDx=0;entryDy=0;" parent="1" source="R5I_NKbSgLiRdK40znAQ-80" target="R5I_NKbSgLiRdK40znAQ-89" edge="1">
          <mxGeometry width="50" height="50" relative="1" as="geometry">
            <mxPoint x="660" y="-590" as="sourcePoint" />
            <mxPoint x="690" y="-629" as="targetPoint" />
          </mxGeometry>
        </mxCell>
        <mxCell id="R5I_NKbSgLiRdK40znAQ-92" value="" style="edgeStyle=elbowEdgeStyle;elbow=horizontal;endArrow=classic;html=1;exitX=1;exitY=0.5;exitDx=0;exitDy=0;entryX=0;entryY=0.5;entryDx=0;entryDy=0;" parent="1" source="R5I_NKbSgLiRdK40znAQ-80" target="R5I_NKbSgLiRdK40znAQ-86" edge="1">
          <mxGeometry width="50" height="50" relative="1" as="geometry">
            <mxPoint x="670" y="-580" as="sourcePoint" />
            <mxPoint x="700" y="-619" as="targetPoint" />
          </mxGeometry>
        </mxCell>
        <mxCell id="R5I_NKbSgLiRdK40znAQ-94" value="" style="edgeStyle=elbowEdgeStyle;elbow=horizontal;endArrow=classic;html=1;exitX=1;exitY=0.5;exitDx=0;exitDy=0;entryX=0;entryY=0.75;entryDx=0;entryDy=0;" parent="1" source="R5I_NKbSgLiRdK40znAQ-62" target="R5I_NKbSgLiRdK40znAQ-78" edge="1">
          <mxGeometry width="50" height="50" relative="1" as="geometry">
            <mxPoint x="524" y="-567" as="sourcePoint" />
            <mxPoint x="581" y="-590" as="targetPoint" />
          </mxGeometry>
        </mxCell>
        <mxCell id="R5I_NKbSgLiRdK40znAQ-95" value="" style="edgeStyle=elbowEdgeStyle;elbow=horizontal;endArrow=classic;html=1;exitX=1;exitY=0.5;exitDx=0;exitDy=0;entryX=0;entryY=0.5;entryDx=0;entryDy=0;" parent="1" source="R5I_NKbSgLiRdK40znAQ-62" target="R5I_NKbSgLiRdK40znAQ-79" edge="1">
          <mxGeometry width="50" height="50" relative="1" as="geometry">
            <mxPoint x="534" y="-557" as="sourcePoint" />
            <mxPoint x="591" y="-580" as="targetPoint" />
          </mxGeometry>
        </mxCell>
        <mxCell id="R5I_NKbSgLiRdK40znAQ-101" value="" style="group" parent="1" vertex="1" connectable="0">
          <mxGeometry x="566" y="-506" width="79.5" height="80" as="geometry" />
        </mxCell>
        <mxCell id="R5I_NKbSgLiRdK40znAQ-102" value="&lt;font color=&quot;#ffffff&quot;&gt;级数&lt;/font&gt;" style="rounded=1;whiteSpace=wrap;html=1;fillColor=#999900;" parent="R5I_NKbSgLiRdK40znAQ-101" vertex="1">
          <mxGeometry width="79" height="20" as="geometry" />
        </mxCell>
        <mxCell id="R5I_NKbSgLiRdK40znAQ-103" value="&lt;font color=&quot;#ffffff&quot;&gt;数列&lt;/font&gt;" style="rounded=1;whiteSpace=wrap;html=1;fillColor=#999900;" parent="R5I_NKbSgLiRdK40znAQ-101" vertex="1">
          <mxGeometry y="20" width="79" height="20" as="geometry" />
        </mxCell>
        <mxCell id="R5I_NKbSgLiRdK40znAQ-104" value="&lt;font color=&quot;#ffffff&quot;&gt;集合&lt;/font&gt;" style="rounded=1;whiteSpace=wrap;html=1;fillColor=#999900;" parent="R5I_NKbSgLiRdK40znAQ-101" vertex="1">
          <mxGeometry y="40" width="79" height="20" as="geometry" />
        </mxCell>
        <mxCell id="R5I_NKbSgLiRdK40znAQ-106" value="" style="edgeStyle=elbowEdgeStyle;elbow=horizontal;endArrow=classic;html=1;exitX=1;exitY=0.5;exitDx=0;exitDy=0;entryX=0;entryY=0.5;entryDx=0;entryDy=0;" parent="1" source="R5I_NKbSgLiRdK40znAQ-63" target="R5I_NKbSgLiRdK40znAQ-102" edge="1">
          <mxGeometry width="50" height="50" relative="1" as="geometry">
            <mxPoint x="525" y="-527" as="sourcePoint" />
            <mxPoint x="571" y="-512" as="targetPoint" />
          </mxGeometry>
        </mxCell>
        <mxCell id="R5I_NKbSgLiRdK40znAQ-107" value="" style="edgeStyle=elbowEdgeStyle;elbow=horizontal;endArrow=classic;html=1;exitX=1;exitY=0.5;exitDx=0;exitDy=0;entryX=0;entryY=0.5;entryDx=0;entryDy=0;" parent="1" source="R5I_NKbSgLiRdK40znAQ-63" target="R5I_NKbSgLiRdK40znAQ-104" edge="1">
          <mxGeometry width="50" height="50" relative="1" as="geometry">
            <mxPoint x="535" y="-517" as="sourcePoint" />
            <mxPoint x="581" y="-502" as="targetPoint" />
          </mxGeometry>
        </mxCell>
      </root>
    </mxGraphModel>
  </diagram>
</mxfile>
